<svg viewBox="0 0 336.967 56.317" height="20.317" xmlns="http://www.w3.org/2000/svg"><path style="fill:none;fill-opacity:1;stroke:#3481b4;stroke-width:3.49748;stroke-miterlimit:4;stroke-dasharray:none;stroke-opacity:1" d="M285.24 1.749c-1.375 0-2.346.404-2.913.97-.566.566-.808 1.658-.808 3.033v44.444c0 2.629 1.375 3.882 4.125 3.882h3.437c2.75 0 4.125-1.253 4.125-3.882V47.85l.284-15.044c3.204.355 8.88.437 12.778-.322 2.75-.405 5.864-1.618 8.088-3.438 3.033-2.628 4.57-5.944 4.57-10.352 0-5.217-1.537-9.342-4.57-12.254-3.195-3.194-7.441-4.691-12.82-4.691Zm-35.235.11c-2.964.037-5.03 1.078-5.669 3.713l-16.212 43.113c-.959 2.402-1.778 5.281 3.42 5.474h4.184c2.72-.19 3.91-1.245 4.473-2.695l3.714-8.426c.247-.445.432-.82 1.08-1.05h14.496c.86.139 1.248.896 1.51 1.404l2.91 6.196c.713 2.097 1.182 4.332 5.267 4.52h4.377c2.744-.122 4.188-1.317 3.577-4.21L260.622 5.81c-.773-2.898-2.708-3.71-4.985-3.908h-4.309c-.458-.033-.9-.049-1.323-.043zm76.923.43c-1.254 0-2.062.242-2.75.808-.566.688-.808 1.658-.808 3.032v44.04c0 2.63 1.374 3.882 4.124 3.882h3.6c2.628 0 4.124-1.253 4.124-3.881V6.13c0-1.375-.404-2.345-.808-3.033-.688-.566-1.66-.809-2.914-.809zm-33.682 10.5h8.008c1.658 0 3.033.566 4.125 1.78 1.253.97 1.657 2.344 1.657 4.002 0 1.78-.565 3.033-1.778 4.003-1.375 1.092-2.913 1.66-4.57 1.66h-7.442zm-40.812 3.61c.62.014 5.054 12.148 5.054 12.148.318.936.85 2.066-.518 1.92h-9.318c-.475.012-.947-.201-.815-.494 0 0 4.977-13.587 5.597-13.574z"/><path d="M133.947.028c-1.46 0-2.49.428-3.09 1.029-.601.6-.859 1.76-.859 3.218v47.152c0 2.79 1.46 4.118 4.377 4.118h3.647c2.917 0 4.376-1.329 4.376-4.118v-2.489l.301-15.96 17.118 21.237.128.13c1.46 1.459 2.575 1.414 5.579 1.414l2.788-.043s.988.043 2.833 0c2.402.043 3.646-1.457 2.188-3.345l-17.077-19.736c2.917-.429 6.22-1.716 8.58-3.647 3.218-2.788 4.85-6.306 4.85-10.983 0-5.534-1.632-9.91-4.85-13-3.389-3.39-7.894-4.977-13.6-4.977zM98.293.07c-1.373-.043-2.404.385-3.133.986-.429.6-.729 1.76-.729 3.218v46.723c0 1.458.301 2.488 1.03 3.088.73.601 1.63 1.031 3.218 1.031h23.598c2.789 0 4.117-1.331 4.117-3.948v-3.946c0-1.33-.3-2.36-.857-2.918-.73-.6-1.758-.857-3.217-.857h-15.36v-9.955h13.901c1.459 0 2.616-.3 3.217-.858.73-.6 1.03-1.631 1.03-3.09v-4.118c0-1.33-.3-2.188-1.03-2.918-.6-.6-1.758-.857-3.217-.857H106.96v-9.826h14.93c1.33 0 2.359-.3 3.088-.9.73-.601 1.031-1.631 1.031-2.918v-4.12c0-2.488-1.459-3.817-4.119-3.817zm75.51.256c-2.789 0-4.117 1.332-4.117 3.82v4.118c0 1.33.3 2.36 1.029 2.917.6.6 1.586.858 3.088.858h9.097v39.687c0 2.79 1.459 4.12 4.376 4.12h3.946c2.79 0 4.248-1.33 4.248-4.12V12.04h9.225c1.459 0 2.66-.3 3.217-.858.73-.6 1.03-1.63 1.03-2.917V4.147c0-2.488-1.458-3.82-4.247-3.82zM3.775.63c-1.33 0-2.188.257-2.917.858C.258 2.216 0 3.245 0 4.704v46.723c0 2.79 1.458 4.118 4.376 4.118h3.818c2.79 0 4.376-1.329 4.376-4.118V4.704c0-1.459-.428-2.488-.857-3.217-.73-.601-1.76-.858-3.09-.858ZM142.44 11.74h8.496c1.76 0 3.218.6 4.376 1.888 1.33 1.03 1.758 2.487 1.758 4.246 0 1.888-.599 3.218-1.886 4.247-1.459 1.159-3.09 1.76-4.85 1.76h-7.894zm-66.714.857c-4.848 0-8.496 1.459-11.285 4.248-2.917 2.617-4.376 5.878-4.376 9.525 0 3.089.902 5.577 2.618 7.336 1.33 1.159 3.646 2.49 6.864 3.949 1.158.429 3.948 1.628 8.367 3.516.73.6 1.029 1.158 1.029 2.188 0 .6-.13 1.16-.73 1.632-.6.6-1.46.729-2.66.729-.901 0-2.058-.43-4.118-1.159-.6-.3-1.33-.429-1.888-.858-.3-.129-.9-.301-1.158-.43-.429-.3-.602-.299-.902-.427l-1.759-.73c-2.488-1.158-4.377-.601-5.406 1.887l-1.2 3.045c-.601 1.159-.73 2.19-.302 3.091.43.601 1.16 1.33 2.49 2.36l1.758 1.028c1.459.901 3.39 1.631 5.279 2.06 2.06.6 4.375.73 6.864.73 4.376 0 8.066-1.16 10.854-3.52 3.09-2.617 4.676-5.875 4.676-9.951 0-4.248-2.059-7.467-6.006-9.827L74.61 28.644a7.462 7.462 0 0 1-2.189-1.157c-.3-.3-.6-.901-.6-1.459.042-1.115.643-1.847 1.5-2.276.43-.3 1.032-.299 1.761-.299.858 0 2.058.128 3.346.73l4.677 2.059c1.459.6 2.488.859 3.217.601.73-.3 1.46-1.03 1.889-2.188l1.587-3.39c.429-1.33.6-2.188.128-3.089-.3-.729-1.03-1.459-2.488-2.06l-2.917-1.458c-.3 0-.601-.3-.73-.3-2.617-1.158-5.276-1.76-8.065-1.76zm-34.024.086c-3.089 0-5.707.6-7.766 1.459-1.158.729-2.358 1.63-3.388 2.788 0-1.373-.258-2.273-.73-3.002-.73-.73-1.631-1.03-3.09-1.03h-4.676c-1.33 0-2.488.3-2.917 1.03-.6.73-1.03 1.758-1.03 3.089v34.41c0 2.788 1.458 4.117 4.375 4.117h3.39c2.79 0 4.248-1.329 4.248-4.118V30.188c0-1.887.73-3.818 1.889-5.105 1.03-1.459 2.787-2.188 4.975-2.188 1.888 0 3.519.73 4.677 2.06 1.03 1.158 1.63 2.617 1.888 4.119V51.34c0 1.46.3 2.618 1.03 3.219.6.6 1.587.858 3.217.858h3.39c1.63 0 2.79-.3 3.39-.858.73-.6 1.03-1.76 1.03-3.219V26.886c0-4.676-1.46-8.366-4.377-10.983-2.488-2.06-5.706-3.22-9.525-3.22z" style="fill:#3481b4;fill-opacity:1;stroke:none;stroke-width:3.711;stroke-miterlimit:4;stroke-dasharray:none;stroke-opacity:1"/></svg>